# Blender 3.4.1
# www.blender.org
mtllib maidroid_hat_cook.mtl
o Cube
v 1.954102 3.591035 1.954102
v -1.954102 6.366857 -1.954102
v -1.954102 3.591035 1.954102
v 1.954102 6.366857 -1.954102
v 1.954102 3.591035 -1.954102
v -1.954102 6.366857 1.954102
v -1.954102 3.591035 -1.954102
v 1.954102 6.366857 1.954102
v -2.625603 6.366857 -2.625603
v 2.625603 6.366857 -2.625603
v -2.625603 6.366857 2.625603
v 2.625603 6.366857 2.625603
v -2.625603 7.198180 -2.625603
v 2.625603 7.198180 -2.625603
v -2.625603 7.198180 2.625603
v 2.625603 7.198180 2.625603
vn -1.0000 -0.0000 -0.0000
vn -0.0000 -1.0000 -0.0000
vn -0.0000 -0.0000 1.0000
vn -0.0000 1.0000 -0.0000
vn -0.0000 -0.0000 -1.0000
vn 1.0000 -0.0000 -0.0000
vt 0.431402 0.431402
vt -0.002720 0.010597
vt 0.568598 0.568598
vt 1.002720 0.884410
vt -0.002720 0.010597
vt 1.002720 0.010597
vt 0.431402 0.568598
vt 0.568598 0.431402
vt 1.002720 0.884410
vt -0.002720 0.884410
vt 0.568598 0.431402
vt 1.002720 0.010597
vt -0.002720 0.010597
vt -0.002720 0.884410
vt 1.002720 0.884410
vt 0.431402 0.568598
vt 0.568598 0.568598
vt 1.002720 0.010597
vt 0.431402 0.431402
vt -0.002720 0.884410
vt 0.592171 0.592171
vt 0.997258 0.905107
vt 0.592171 0.407829
vt 0.002742 0.905107
vt 0.997258 0.905107
vt 0.002742 0.905107
vt 0.407829 0.592171
vt 0.997258 0.905107
vt 0.407829 0.407829
vt 0.002742 0.905107
vt 0.730329 0.730329
vt 0.997258 0.997837
vt 0.730329 0.269671
vt 0.002742 0.997837
vt 0.997258 0.997837
vt 0.002742 0.997837
vt 0.269671 0.730329
vt 0.997258 0.997837
vt 0.269671 0.269671
vt 0.002742 0.997837
s 0
usemtl cook_hat
f 3/5/1 6/14/1 2/4/1 7/18/1
f 6/16/2 11/27/2 9/21/2 2/3/2
f 1/2/3 8/20/3 6/15/3 3/6/3
f 3/7/2 7/17/2 5/11/2 1/1/2
f 11/26/1 15/36/1 13/32/1 9/22/1
f 4/8/2 10/23/2 12/29/2 8/19/2
f 2/3/2 9/21/2 10/23/2 4/8/2
f 8/19/2 12/29/2 11/27/2 6/16/2
f 15/37/4 16/39/4 14/33/4 13/31/4
f 12/30/3 16/40/3 15/38/3 11/28/3
f 9/22/5 13/32/5 14/34/5 10/24/5
f 10/25/6 14/35/6 16/40/6 12/30/6
f 1/2/6 5/12/6 4/9/6 8/20/6
f 7/18/5 2/4/5 4/10/5 5/13/5
